<?xml version="1.0" encoding="UTF-8" standalone="no"?>
<!-- Created with Inkscape (http://www.inkscape.org/) -->

<svg
   width="132.02356mm"
   height="225.29985mm"
   viewBox="0 0 132.02356 225.29985"
   version="1.1"
   id="svg1"
   xml:space="preserve"
   xmlns="http://www.w3.org/2000/svg"
   xmlns:svg="http://www.w3.org/2000/svg"><defs
     id="defs1" /><g
     id="layer1"
     transform="translate(-39.278462,-36.64474)"><g
       style="fill:#f5f5f5"
       id="g1"
       transform="matrix(0.26458333,0,0,0.26458333,-255.89414,-6.5797098)"><path
         d="m 1608.877,448.119 c -2.135,1.396 -4.524,2.051 -6.884,2.051 -4.683,0 -9.235,-2.604 -11.407,-7.202 -13.272,-28.116 -50.623,-92.32 -121.26,-110.302 -23.555,-5.994 -40.676,-14.171 -53.105,-23.003 v 570.298 c 0,74.524 -67.294,134.934 -150.304,134.934 -83.01,0 -150.304,-60.41 -150.304,-134.934 0,-74.524 67.294,-134.944 150.304,-134.944 41.013,0 78.196,14.761 105.31,38.681 v -620.33 h 44.994 c 0,0 0,0.122 0,0.356 0,5.769 1.545,80.725 81.315,115.828 80.275,35.319 107.745,79.957 116.971,156.429 0.58,4.795 -1.593,9.497 -5.63,12.138 z"
         id="path1" /></g></g></svg>
