<?xml version="1.0" encoding="UTF-8" standalone="no"?>
<!-- Created with Inkscape (http://www.inkscape.org/) -->

<svg
   width="173.33717mm"
   height="166.99767mm"
   viewBox="0 0 173.33717 166.99767"
   version="1.1"
   id="svg1"
   xml:space="preserve"
   xmlns="http://www.w3.org/2000/svg"
   xmlns:svg="http://www.w3.org/2000/svg"><defs
     id="defs1" /><g
     id="layer1"
     transform="translate(-19.659094,-57.939865)"><g
       style="fill:#f5f5f5"
       id="g1"
       transform="matrix(0.20909064,0,0,0.18477197,-6.1069362,37.413176)"><path
         d="m 378.849,208.75 v 574.947 c -27.121,-23.919 -64.296,-38.679 -105.317,-38.679 -83.01,0 -150.303,60.414 -150.303,134.939 0,74.525 67.293,134.939 150.303,134.939 83.01,0 150.303,-60.414 150.303,-134.939 V 376.79 L 907.248,294.456 V 686.039 C 880.127,662.12 842.952,647.36 801.931,647.36 c -83.01,0 -150.303,60.414 -150.303,134.939 0,74.525 67.293,134.939 150.303,134.939 83.01,0 150.303,-60.414 150.303,-134.939 V 111.092 Z"
         id="path1" /></g></g></svg>
