<?xml version="1.0" encoding="UTF-8" standalone="no"?>
<!-- Created with Inkscape (http://www.inkscape.org/) -->

<svg
   width="79.533745mm"
   height="225.30064mm"
   viewBox="0 0 79.533745 225.30064"
   version="1.1"
   id="svg1"
   xml:space="preserve"
   xmlns="http://www.w3.org/2000/svg"
   xmlns:svg="http://www.w3.org/2000/svg"><defs
     id="defs1" /><g
     id="layer1"
     transform="translate(-65.272704,-35.780926)"><g
       style="fill:#f5f5f5"
       id="g1"
       transform="matrix(0.26458333,0,0,0.26458333,-387.79185,-290.20955)"><path
         d="m 1967.98,1232.09 v 620.33 c -27.11,-23.92 -64.3,-38.68 -105.31,-38.68 -83.01,0 -150.3,60.42 -150.3,134.95 0,74.52 67.29,134.93 150.3,134.93 83.01,0 150.3,-60.41 150.3,-134.93 0,0 0,-710.47 0,-716.24 0,-0.24 0,-0.36 0,-0.36 z m -75.76,774.93 c -83.76,48.27 -116.89,34.01 -134.69,3.13 -17.79,-30.88 -13.51,-66.69 70.26,-114.96 83.75,-48.26 116.89,-34.01 134.68,-3.13 17.8,30.88 13.51,66.7 -70.25,114.96 z"
         id="path1" /></g></g></svg>
