<?xml version="1.0" encoding="UTF-8" standalone="no"?>
<!-- Created with Inkscape (http://www.inkscape.org/) -->

<svg
   width="140.96184mm"
   height="240.55389mm"
   viewBox="0 0 140.96184 240.55389"
   version="1.1"
   id="svg1"
   xml:space="preserve"
   xmlns="http://www.w3.org/2000/svg"
   xmlns:svg="http://www.w3.org/2000/svg"><defs
     id="defs1" /><g
     id="layer1"
     transform="translate(-34.558659,-28.154316)"><g
       style="fill:#f5f5f5"
       id="g1"
       transform="matrix(0.26458333,0,0,0.26458333,-39.953299,-282.58293)"><path
         d="m 814.29,1686.15 c 0.62,5.12 -1.7,10.14 -6.01,12.96 -2.28,1.49 -4.83,2.19 -7.35,2.19 -5,0 -9.86,-2.78 -12.18,-7.69 -14.17,-30.02 -54.05,-98.57 -129.47,-117.77 -25.15,-6.4 -43.43,-15.13 -56.7,-24.56 v 388.27 c 0,79.57 -71.85,144.07 -160.48,144.07 -88.63,0 -160.48,-64.5 -160.48,-144.07 0,-79.57 71.85,-144.08 160.48,-144.08 43.79,0 83.49,15.76 112.44,41.3 v -662.33 h 48.04 c 0,0 0,0.13 0,0.38 0,6.16 1.65,86.19 86.82,123.67 85.71,37.71 115.04,85.37 124.89,167.02 0.62,5.12 -1.7,10.14 -6.01,12.96 -2.28,1.49 -4.83,2.19 -7.35,2.19 -5,0 -9.86,-2.78 -12.18,-7.69 -14.17,-30.02 -54.05,-98.57 -129.47,-117.77 -25.15,-6.4 -43.43,-15.13 -56.7,-24.56 v 64.82 c 0,6.16 1.65,86.19 86.82,123.67 85.71,37.71 115.04,85.37 124.89,167.02 z"
         id="path1" /></g></g></svg>
