<?xml version="1.0" encoding="UTF-8" standalone="no"?>
<!-- Created with Inkscape (http://www.inkscape.org/) -->

<svg
   width="109.94976mm"
   height="240.55385mm"
   viewBox="0 0 109.94976 240.55385"
   version="1.1"
   id="svg1"
   xml:space="preserve"
   xmlns="http://www.w3.org/2000/svg"
   xmlns:svg="http://www.w3.org/2000/svg"><defs
     id="defs1" /><g
     id="layer1"
     transform="translate(-50.064704,-28.154327)"><g
       style="fill:#f5f5f5"
       id="g1"
       transform="matrix(0.26458333,0,0,0.26458333,-215.38749,-282.58295)"><path
         d="m 1402.88,1583.038 c -31.997,-62.544 -114.395,-97.236 -179.706,-66.948 -1.741,0.808 -3.44,1.668 -5.119,2.57 -0.352,-17.667 -0.694,-35.261 -1.016,-52.721 -0.238,-16.247 -0.373,-32.536 -0.363,-48.836 27.884,-22.92 59.85,-46.276 75.942,-80.346 9.243,-21.252 12.507,-44.929 11.989,-67.528 -0.819,-33.935 -12.258,-68.886 -36.992,-92.884 -0.363,-1.181 -1.502,-2 -2.787,-1.896 l -3.264,0.238 c -14.89,0.808 -27.563,10.611 -36.38,22.04 -13.398,16.506 -18.641,38.028 -20.444,58.617 -2.176,25.304 -0.663,51.809 -1.109,77.134 -0.073,13.056 -0.228,26.692 -0.414,40.567 -6.455,3.896 -12.921,7.792 -19.242,11.885 -6.994,4.404 -14.206,9.865 -20.921,14.693 -8.383,6.497 -16.735,13.584 -24.371,20.962 -7.098,6.549 -13.533,13.761 -19.967,20.952 -3.751,4.601 -8.435,10.372 -12.082,15.045 -2.508,3.544 -8.631,12.186 -11.087,15.781 l -1.689,2.735 -3.368,5.471 c -22.433,36.204 -37.469,77.03 -44.566,118.975 -5.823,37.469 -6.373,76.502 2.445,113.545 5.969,24.786 16.382,49.063 33.013,68.596 26.951,32.474 68.917,47.53 110.033,50.67 5.316,0.394 10.673,0.611 16.051,0.642 0.518,43.178 0.466,85.838 -0.736,127.451 -1.596,23.687 -6.3,48.121 -20.537,67.58 -25.055,34.578 -73.963,48.815 -112.509,29.676 -10.424,-5.025 -20.071,-11.989 -28.008,-20.433 l -2.974,-3.192 -2.735,-3.388 -1.368,-1.689 c -4.652,-6.383 -8.818,-13.325 -11.647,-20.713 -8.289,-20.434 -7.834,-43.468 -0.549,-64.13 5.14,22.744 25.076,40.08 49.468,40.909 29.013,0.995 53.333,-21.718 54.327,-50.721 0.984,-29.013 -21.729,-53.333 -50.732,-54.327 -22.091,-0.756 -37.935,13.864 -39.064,14.735 -8.352,7.347 -15.729,16.009 -21.387,25.573 l -2.539,4.476 -0.632,1.119 -0.57,1.161 -1.109,2.321 c -0.56,1.254 -1.699,3.43 -2.135,4.673 -1.865,4.549 -3.741,9.906 -5.026,14.59 -0.394,1.627 -1.399,5.989 -1.741,7.533 -0.321,1.927 -0.87,5.533 -1.223,7.647 -1.793,15.439 -0.456,31.407 4.642,46.141 0.425,1.523 1.264,3.357 1.844,4.87 l 0.974,2.414 c 3.347,7.937 7.937,15.408 13.015,22.35 l 1.616,2.01 3.264,4.01 c 0.901,0.933 4.507,4.922 5.274,5.668 1.316,1.192 4.248,4.052 5.647,5.285 14.33,12.445 31.697,21.408 50.369,25.148 l 5.14,0.85 c 0.86,0.124 1.71,0.3 2.58,0.383 2.518,0.176 5.264,0.508 7.782,0.622 l 5.202,0.021 h 2.601 c 1.73,-0.166 5.968,-0.363 7.751,-0.57 2.435,-0.28 5.253,-0.819 7.678,-1.13 0.86,-0.114 1.689,-0.352 2.528,-0.528 l 5.036,-1.14 c 19.916,-5.181 38.463,-15.781 52.752,-30.63 l 1.813,-1.834 1.689,-1.969 3.347,-3.938 c 4.124,-5.347 8.082,-11.377 11.108,-17.418 6.932,-13.532 10.911,-28.464 13.118,-43.354 2.881,-19.19 2.839,-39.106 2.818,-58.161 0.29,-24.744 0.135,-51.623 -0.062,-76.274 -0.031,-4.684 -0.073,-9.388 -0.114,-14.092 72.108,-4.217 144.859,-40.328 177.478,-106.717 22.031,-43.902 24.953,-98.447 1.95,-142.827 z m -182.172,-288.153 c 2.352,-27.666 4.466,-62.378 21.874,-84.449 6.093,-7.419 13.201,-14.683 19.801,-21.801 15.336,23.542 20.247,52.234 17.532,79.9 -1.326,14.465 -4.715,29.107 -10.072,42.442 -1.99,4.777 -4.114,9.264 -6.839,13.501 -4.642,6.87 -10.693,13.429 -16.89,18.942 -8.89,7.854 -18.682,14.579 -28.775,20.952 0.603,-23.211 1.659,-46.401 3.369,-69.487 z m -51.654,525.688 c -35.862,-8.497 -67.321,-28.982 -82.76,-63.301 -1.451,-2.808 -3.046,-7.326 -4.238,-10.279 -0.549,-1.907 -2.062,-6.082 -2.528,-7.968 -2.725,-9.813 -4.518,-20.061 -5.367,-30.226 -2.197,-26.133 1.047,-52.773 6.901,-78.274 0.632,-3.191 1.762,-7.875 2.663,-10.942 l 2.953,-10.839 c 0.964,-3.202 2.383,-7.429 3.45,-10.683 8.072,-24.62 19.076,-48.618 32.132,-70.927 0.829,-1.409 6.549,-10.735 7.17,-11.844 1.067,-1.647 3.513,-5.139 4.632,-6.891 1.71,-2.508 4.404,-6.808 6.238,-9.139 4.321,-5.854 8.59,-12.02 13.273,-17.646 1.016,-1.306 4.186,-5.285 5.109,-6.518 2.963,-3.513 6.01,-6.942 8.963,-10.476 2.311,-2.88 4.922,-5.461 7.398,-8.186 l 3.741,-4.072 c 1.254,-1.347 2.445,-2.767 3.792,-4.02 6.404,-6.466 12.983,-12.818 19.771,-18.952 -0.187,12.486 -0.363,24.775 -0.487,36.567 -0.363,20.9 -0.456,42.059 -0.373,63.415 -24.205,18.807 -40.815,46.898 -45.955,76.978 -4.093,23.687 -0.269,49.986 13.025,69.808 3.668,5.357 12.051,1.544 10.269,-4.829 -10.051,-32.837 0.56,-69.228 23.117,-94.231 1.212,81.962 4.31,165.966 5.43,248.26 -12.953,-0.184 -25.833,-1.748 -38.319,-4.785 z m 205.455,-105.639 c -20.061,65.052 -84.802,105.183 -151.118,109.97 -0.787,-86.449 -2.673,-175.323 -4.466,-262.808 6.041,-4.186 12.548,-7.668 19.449,-10.279 50.369,-17.874 109.877,12.963 131.575,60.358 14.819,31.78 15.295,69.249 4.56,102.759 z"
         id="path1" /></g></g></svg>
