    <svg 
        viewBox="0 0 2200 2200" 
        fill="#F5F5F5" 
        xmlns="http://www.w3.org/2000/svg"
    >
        <g>
            <path d="M1828.91,1072.933c-13.184-3.282-26.498-4.992-39.828-5.399
                c-0.122-43.663-0.024-87.294,0.432-130.884c36.041-30.121,70.91-63.345,100.909-99.118c38.02-44.755,65.764-96.993,83.557-152.537
                c20.781-63.011,22.972-134.394-4.731-196.583c-3.184-7.37-6.93-14.731-10.741-21.889c-0.204-0.391-0.44-0.806-0.692-1.238
                c-11.465-19.486-37.874-23.753-55.243-9.275c-2.125,1.775-3.518,2.932-3.518,2.932c-53.484,46.741-97.294,105.331-120.909,172.414
                c-12.125,35.39-15.496,72.677-16.018,109.289c0.643,36.66,1.27,73.321,1.832,109.989c-44.909,29.087-90.722,57.621-132.725,91.284
                c-89.403,69.062-168.554,159.352-158.375,280.473c6.751,92.514,57.865,180.818,143.539,220.572
                c44.877,21.107,94.281,27.687,143.221,25.162c0.725-0.033,1.441-0.073,2.166-0.114c-0.366,43.557-0.594,86.757-0.603,128.816
                c0.619,21.872-3.51,44.038-13.493,63.581c-18.167,36.302-50.821,57.099-91.284,59.388c-41.058,2.689-88.142-8.627-113.211-42.167
                c2.59,0.411,5.229,0.713,7.922,0.865c34.901,1.974,64.487-19.285,66.081-47.483c1.595-28.198-25.427-52.309-60.306-54.631
                c-32.01-2.131-60.217,16.034-66.081,47.483c-11.1,59.53,48.66,107.528,92.714,119.588c23.949,6.8,53.997,10.504,78.378,8.672
                c61.09-4.536,107.391-44.339,125.021-102.31c5.236-17.125,7.239-35.129,6.865-52.987c0.016-43.981-0.244-88.035-0.643-132.13
                c83.125-13.558,153.286-64.493,175.639-151.446c6.97-27.915,8.909-57.441,3.347-85.633
                C1958.288,1154.779,1901.84,1090.416,1828.91,1072.933z M1827.925,634.809c22.581-34.103,54.298-62.588,91.496-79.485
                c3.762,4.202,7.06,8.892,9.829,13.819c14.69,25.977,16.254,58.573,8.119,87.074c-13.933,52.499-45.569,100.405-87.652,134.337
                c-7.337,6.034-14.902,11.791-22.556,17.434c-11.718,8.428-23.672,16.612-35.765,24.665
                C1793.39,766.076,1789.172,691.68,1827.925,634.809z M1598.704,1256.527c2.63,34.111,19.324,69.436,48.72,88.369
                c13.55,9.039,29.494,14.568,45.772,15.268c2.386,0.033,4.731,0.008,7.093-0.163c0.79-0.09,1.572-0.179,2.353-0.309
                c-0.611-0.497-1.189-1.01-1.759-1.531c-3.835-3.412-7.614-7.109-11.05-10.847c-20.846-22.638-32.059-48.126-32.621-78.85
                c-2.362-60.967,36.408-107.79,98.255-112.513c3.371-0.309,6.767-0.497,10.154-0.586c-0.22,24.959-0.537,49.917-1.01,74.868
                c-0.871,65.642-1.816,133.954-2.492,201.941c-9.308,1.213-19.006,1.645-29.055,1.246
                c-120.624-2.443-198.928-88.882-194.514-208.374c3.591-117.774,117.554-185.02,202.625-250.189
                c8.037-6.026,16.107-12.223,24.152-18.574c0.375,37.287,0.603,74.567,0.635,111.846c-7.687,0.619-15.358,1.62-22.98,3.005
                C1652.066,1087.069,1589.983,1163.834,1598.704,1256.527z M1878.469,1323.008c-11.661,50.87-42.564,86.398-85.723,101.87
                c-0.961-89.273-2.345-178.692-3.127-268.063c13.127,2.003,25.838,6.091,37.336,12.817c27.833,15.985,48.305,45.023,55.389,76.171
                c1.246,5.635,1.979,11.026,2.158,16.612C1884.918,1282.838,1883.135,1303.252,1878.469,1323.008z"/>
        </g>
    </svg>